<svg width="20" height="20" viewBox="0 0 20 20" fill="none" xmlns="http://www.w3.org/2000/svg">
<g clip-path="url(#clip0)">
<path d="M6.45152 17.7603C6.45152 18.2672 6.03677 18.6819 5.52986 18.6819H1.72031C1.21339 18.6819 0.798645 18.2672 0.798645 17.7603V13.582C0.798645 13.0751 1.21339 12.6604 1.72031 12.6604H5.52986C6.03677 12.6604 6.45152 13.0751 6.45152 13.582V17.7603Z" fill="#C2CFE0"/>
<path d="M13.2257 17.7603C13.2257 18.2672 12.811 18.6819 12.3041 18.6819H8.49454C7.98762 18.6819 7.57288 18.2672 7.57288 17.7603V11.3701C7.57288 10.8632 7.98762 10.4484 8.49454 10.4484H12.3041C12.811 10.4484 13.2257 10.8632 13.2257 11.3701V17.7603Z" fill="#C2CFE0"/>
<path d="M20 17.7603C20 18.2672 19.5852 18.6819 19.0783 18.6819H15.2688C14.7619 18.6819 14.3471 18.2672 14.3471 17.7603V8.91229C14.3471 8.40538 14.7619 7.99063 15.2688 7.99063H19.0783C19.5852 7.99063 20 8.40538 20 8.91229V17.7603Z" fill="#C2CFE0"/>
<path d="M19.2022 1.33523L15.0624 2.34243C14.7339 2.42194 14.6608 2.68252 14.8997 2.92148L15.7831 3.78422C15.8573 3.86877 15.7693 3.98121 15.6995 4.02883C15.1432 4.40855 14.2605 4.96573 13.0402 5.60236C6.39719 9.06824 0.921084 8.85565 0.838749 8.8519C0.399176 8.82959 0.0233212 9.16822 0.00058682 9.60853C-0.0220861 10.0491 0.316595 10.4247 0.757151 10.4474C0.789532 10.449 0.921207 10.455 1.14259 10.455C2.56238 10.455 7.66251 10.21 13.7792 7.01877C15.2265 6.26368 16.2297 5.61243 16.8154 5.20014C16.8983 5.14183 17.0426 5.04131 17.1758 5.17691L18.142 6.14306C18.381 6.38202 18.6403 6.30847 18.7184 5.97968L19.6576 1.78851C19.7356 1.45966 19.5307 1.25572 19.2022 1.33523Z" fill="#C2CFE0"/>
</g>
<defs>
<clipPath id="clip0">
<rect width="20" height="20" fill="white"/>
</clipPath>
</defs>
</svg>
