<svg width="1500" height="1500" viewBox="0 0 1500 1500" fill="none" xmlns="http://www.w3.org/2000/svg">
<path fill-rule="evenodd" clip-rule="evenodd" d="M996.963 943.18C939.441 1016.57 849.978 1063.73 749.5 1063.73C649.022 1063.73 559.559 1016.57 502.037 943.18H482C542.011 1025.92 639.472 1079.73 749.5 1079.73C859.529 1079.73 956.989 1025.92 1017 943.18H996.963ZM502.037 555.82C559.559 482.428 649.022 435.269 749.5 435.269C849.978 435.269 939.441 482.428 996.963 555.82H1017C956.989 473.08 859.529 419.269 749.5 419.269C639.472 419.269 542.011 473.08 482 555.82H502.037Z" fill="#EC0F0F"/>
<g clip-path="url(#clip0_2893_6737)">
<g clip-path="url(#clip1_2893_6737)">
<g clip-path="url(#clip2_2893_6737)">
<g clip-path="url(#clip3_2893_6737)">
<g clip-path="url(#clip4_2893_6737)">
<g clip-path="url(#clip5_2893_6737)">
<g clip-path="url(#clip6_2893_6737)">
<path d="M435.306 912.85H413.19V875.989H435.306V880.307H418.192V891.523H432.937V895.736H418.192V908.532H435.306V912.85ZM469.797 913.482C467.691 913.482 465.76 913.067 464.005 912.239C462.249 911.417 460.845 910.259 459.792 908.763C458.739 907.275 458.212 905.513 458.212 903.477C458.212 901.265 458.774 899.264 459.897 897.474C461.021 895.683 462.881 894.068 465.479 892.629C464.18 891.19 463.204 889.838 462.551 888.574C461.905 887.311 461.582 885.854 461.582 884.204C461.582 882.519 461.958 881.009 462.709 879.675C463.467 878.341 464.549 877.288 465.953 876.516C467.357 875.744 469.007 875.357 470.903 875.357C472.798 875.357 474.403 875.715 475.716 876.432C477.036 877.155 478.047 878.113 478.749 879.307C479.451 880.5 479.802 881.817 479.802 883.256C479.802 885.503 479.152 887.416 477.854 888.996C476.555 890.575 474.501 892.05 471.693 893.419L480.381 901.686C480.837 900.879 481.171 900.008 481.382 899.074C481.592 898.148 481.792 897.217 481.982 896.284C482.171 895.357 482.463 894.514 482.856 893.756C483.242 893.005 483.821 892.401 484.594 891.945C485.366 891.488 486.419 891.26 487.753 891.26L488.912 894.999C487.816 894.999 487.026 895.315 486.542 895.947C486.051 896.578 485.689 897.386 485.457 898.369C485.233 899.352 484.987 900.377 484.72 901.444C484.46 902.518 484.032 903.512 483.435 904.424L489.638 910.111L486.7 913.271L481.118 908.005C479.714 909.62 478.124 910.936 476.348 911.954C474.578 912.973 472.395 913.482 469.797 913.482ZM469.376 890.944C471.552 889.821 473.104 888.697 474.031 887.574C474.964 886.451 475.431 885.169 475.431 883.73C475.431 882.466 475.01 881.385 474.167 880.486C473.325 879.595 472.202 879.149 470.797 879.149C469.393 879.149 468.235 879.623 467.322 880.571C466.409 881.518 465.953 882.712 465.953 884.151C465.953 886.433 467.094 888.697 469.376 890.944ZM470.534 909.164C472.044 909.164 473.455 908.802 474.768 908.079C476.081 907.363 477.232 906.373 478.222 905.109L467.849 895.157C466.304 896.245 465.145 897.375 464.373 898.548C463.601 899.727 463.215 901.142 463.215 902.792C463.215 904.617 463.899 906.134 465.268 907.342C466.637 908.556 468.393 909.164 470.534 909.164ZM517.81 912.85H512.808V875.989H517.81V912.85ZM565.202 912.85H543.086V875.989H565.202V880.307H548.088V891.523H562.832V895.736H548.088V908.532H565.202V912.85ZM575.986 912.85H571.247V885.468H575.828V890.049C576.811 888.574 578.068 887.335 579.599 886.331C581.122 885.334 582.937 884.836 585.043 884.836C588.133 884.836 590.443 885.766 591.973 887.627C593.497 889.487 594.259 891.945 594.259 894.999V912.85H589.519V895.525C589.519 893.559 589.056 891.98 588.129 890.786C587.195 889.593 585.904 888.996 584.254 888.996C582.639 888.996 581.112 889.564 579.672 890.702C578.233 891.846 577.004 893.191 575.986 894.735V912.85ZM612.478 925.066C610.863 925.066 609.291 924.873 607.76 924.487C606.236 924.101 604.878 923.522 603.684 922.749L605.422 918.642C606.264 919.309 607.247 919.864 608.371 920.306C609.494 920.741 610.863 920.959 612.478 920.959C614.971 920.959 616.929 920.302 618.355 918.99C619.773 917.67 620.482 915.57 620.482 912.692V909.322C619.78 910.164 618.772 910.964 617.459 911.723C616.14 912.474 614.567 912.85 612.741 912.85C610.67 912.85 608.704 912.313 606.844 911.238C604.983 910.171 603.474 908.602 602.315 906.531C601.157 904.46 600.577 901.967 600.577 899.053C600.577 896.315 601.15 893.875 602.294 891.734C603.431 889.593 604.966 887.907 606.896 886.679C608.827 885.45 610.951 884.836 613.268 884.836C614.813 884.836 616.217 885.099 617.481 885.626C618.744 886.152 619.833 886.802 620.745 887.574V885.468H625.063V912.218C625.063 915.237 624.537 917.694 623.484 919.59C622.43 921.485 620.963 922.872 619.081 923.75C617.207 924.627 615.006 925.066 612.478 925.066ZM613.795 908.637C615.199 908.637 616.462 908.321 617.586 907.689C618.709 907.057 619.622 906.32 620.324 905.478V891.155C619.552 890.593 618.621 890.084 617.533 889.628C616.445 889.171 615.181 888.943 613.742 888.943C612.303 888.943 610.951 889.329 609.687 890.102C608.423 890.874 607.398 891.987 606.612 893.44C605.819 894.9 605.422 896.684 605.422 898.79C605.422 900.791 605.819 902.529 606.612 904.003C607.398 905.478 608.423 906.618 609.687 907.426C610.951 908.233 612.32 908.637 613.795 908.637ZM637.964 912.85H633.225V885.468H637.964V912.85ZM635.595 880.781C634.682 880.781 633.899 880.448 633.246 879.781C632.6 879.114 632.277 878.341 632.277 877.464C632.277 876.446 632.576 875.638 633.173 875.041C633.769 874.445 634.577 874.146 635.595 874.146C636.507 874.146 637.287 874.469 637.933 875.115C638.586 875.768 638.912 876.551 638.912 877.464C638.912 878.447 638.614 879.244 638.017 879.854C637.42 880.472 636.613 880.781 635.595 880.781ZM651.129 912.85H646.39V885.468H650.971V890.049C651.954 888.574 653.207 887.335 654.731 886.331C656.261 885.334 658.08 884.836 660.186 884.836C663.275 884.836 665.582 885.766 667.105 887.627C668.636 889.487 669.401 891.945 669.401 894.999V912.85H664.662V895.525C664.662 893.559 664.195 891.98 663.261 890.786C662.334 889.593 661.046 888.996 659.396 888.996C657.781 888.996 656.254 889.564 654.815 890.702C653.375 891.846 652.147 893.191 651.129 894.735V912.85ZM688.505 913.482C684.573 913.482 681.46 912.225 679.164 909.711C676.861 907.205 675.709 903.687 675.709 899.159C675.709 896.42 676.229 893.97 677.268 891.808C678.3 889.652 679.746 887.95 681.607 886.7C683.468 885.457 685.627 884.836 688.084 884.836C690.717 884.836 692.904 885.404 694.645 886.542C696.379 887.686 697.685 889.224 698.563 891.155C699.44 893.085 699.879 895.209 699.879 897.526C699.879 898.755 699.827 899.949 699.721 901.107H680.554C680.87 903.67 681.765 905.671 683.239 907.11C684.714 908.549 686.662 909.269 689.084 909.269C690.664 909.269 692.086 909.1 693.35 908.763C694.613 908.433 695.825 908.005 696.983 907.479L698.089 911.533C696.825 912.095 695.403 912.562 693.824 912.934C692.244 913.299 690.471 913.482 688.505 913.482ZM680.501 897.263H695.509C695.509 894.595 694.842 892.541 693.508 891.102C692.174 889.663 690.331 888.943 687.979 888.943C685.943 888.943 684.257 889.652 682.923 891.07C681.589 892.496 680.782 894.56 680.501 897.263ZM717.151 913.482C713.219 913.482 710.105 912.225 707.809 909.711C705.507 907.205 704.355 903.687 704.355 899.159C704.355 896.42 704.875 893.97 705.914 891.808C706.946 889.652 708.392 887.95 710.253 886.7C712.113 885.457 714.272 884.836 716.73 884.836C719.363 884.836 721.55 885.404 723.291 886.542C725.025 887.686 726.331 889.224 727.209 891.155C728.086 893.085 728.525 895.209 728.525 897.526C728.525 898.755 728.472 899.949 728.367 901.107H709.2C709.516 903.67 710.411 905.671 711.885 907.11C713.36 908.549 715.308 909.269 717.73 909.269C719.31 909.269 720.732 909.1 721.995 908.763C723.259 908.433 724.47 908.005 725.629 907.479L726.735 911.533C725.471 912.095 724.049 912.562 722.469 912.934C720.89 913.299 719.117 913.482 717.151 913.482ZM709.147 897.263H724.154C724.154 894.595 723.487 892.541 722.153 891.102C720.819 889.663 718.976 888.943 716.624 888.943C714.588 888.943 712.903 889.652 711.569 891.07C710.235 892.496 709.428 894.56 709.147 897.263ZM739.583 912.85H734.844V885.468H739.425V891.418C739.881 890.26 740.496 889.178 741.268 888.174C742.04 887.177 743.006 886.37 744.164 885.752C745.323 885.141 746.674 884.836 748.219 884.836C748.746 884.836 749.272 884.86 749.799 884.909C750.325 884.966 750.764 885.046 751.115 885.152L749.693 890.049C749.026 889.768 748.236 889.628 747.324 889.628C746.025 889.628 744.786 889.996 743.606 890.733C742.434 891.471 741.468 892.612 740.71 894.156C739.959 895.701 739.583 897.667 739.583 900.054V912.85ZM760.593 912.85H755.854V885.468H760.593V912.85ZM758.224 880.781C757.304 880.781 756.521 880.448 755.875 879.781C755.229 879.114 754.906 878.341 754.906 877.464C754.906 876.446 755.201 875.638 755.791 875.041C756.395 874.445 757.206 874.146 758.224 874.146C759.137 874.146 759.916 874.469 760.562 875.115C761.208 875.768 761.531 876.551 761.531 877.464C761.531 878.447 761.236 879.244 760.646 879.854C760.042 880.472 759.235 880.781 758.224 880.781ZM773.747 912.85H769.008V885.468H773.589V890.049C774.572 888.574 775.829 887.335 777.36 886.331C778.883 885.334 780.698 884.836 782.804 884.836C785.894 884.836 788.204 885.766 789.734 887.627C791.258 889.487 792.02 891.945 792.02 894.999V912.85H787.28V895.525C787.28 893.559 786.817 891.98 785.89 890.786C784.956 889.593 783.665 888.996 782.015 888.996C780.4 888.996 778.873 889.564 777.433 890.702C775.994 891.846 774.765 893.191 773.747 894.735V912.85ZM810.239 925.066C808.624 925.066 807.055 924.873 805.532 924.487C804.001 924.101 802.639 923.522 801.445 922.749L803.183 918.642C804.026 919.309 805.008 919.864 806.132 920.306C807.255 920.741 808.624 920.959 810.239 920.959C812.732 920.959 814.69 920.302 816.116 918.99C817.534 917.67 818.243 915.57 818.243 912.692V909.322C817.541 910.164 816.533 910.964 815.221 911.723C813.901 912.474 812.328 912.85 810.502 912.85C808.431 912.85 806.465 912.313 804.605 911.238C802.744 910.171 801.235 908.602 800.076 906.531C798.918 904.46 798.338 901.967 798.338 899.053C798.338 896.315 798.911 893.875 800.055 891.734C801.193 889.593 802.727 887.907 804.657 886.679C806.588 885.45 808.712 884.836 811.029 884.836C812.574 884.836 813.978 885.099 815.242 885.626C816.505 886.152 817.594 886.802 818.506 887.574V885.468H822.824V912.218C822.824 915.237 822.298 917.694 821.245 919.59C820.191 921.485 818.728 922.872 816.853 923.75C814.971 924.627 812.767 925.066 810.239 925.066ZM811.556 908.637C812.96 908.637 814.224 908.321 815.347 907.689C816.47 907.057 817.383 906.32 818.085 905.478V891.155C817.313 890.593 816.383 890.084 815.294 889.628C814.206 889.171 812.942 888.943 811.503 888.943C810.064 888.943 808.712 889.329 807.448 890.102C806.184 890.874 805.159 891.987 804.373 893.44C803.58 894.9 803.183 896.684 803.183 898.79C803.183 900.791 803.58 902.529 804.373 904.003C805.159 905.478 806.184 906.618 807.448 907.426C808.712 908.233 810.081 908.637 811.556 908.637ZM856.473 913.482C853.91 913.482 851.575 913.138 849.469 912.449C847.363 911.768 845.59 910.866 844.151 909.743L846.678 905.53C847.942 906.583 849.364 907.443 850.943 908.11C852.523 908.777 854.366 909.111 856.473 909.111C859 909.111 861.001 908.584 862.475 907.531C863.95 906.478 864.687 905.056 864.687 903.266C864.687 902.248 864.476 901.342 864.055 900.549C863.634 899.762 862.816 898.99 861.601 898.232C860.394 897.481 858.614 896.666 856.262 895.789C853.734 894.806 851.716 893.812 850.206 892.808C848.697 891.811 847.616 890.67 846.963 889.385C846.317 888.108 845.994 886.591 845.994 884.836C845.994 883.081 846.475 881.49 847.436 880.065C848.405 878.647 849.827 877.506 851.702 876.642C853.583 875.786 855.858 875.357 858.526 875.357C860.703 875.357 862.658 875.575 864.392 876.01C866.133 876.453 867.829 877.078 869.479 877.885L867.636 882.15C866.442 881.448 865.045 880.858 863.444 880.381C861.851 879.911 860.176 879.675 858.421 879.675C856.104 879.675 854.278 880.132 852.944 881.044C851.61 881.957 850.943 883.133 850.943 884.572C850.943 885.485 851.137 886.293 851.523 886.995C851.909 887.697 852.671 888.381 853.808 889.048C854.952 889.715 856.666 890.47 858.947 891.313C861.686 892.331 863.852 893.401 865.445 894.525C867.046 895.648 868.18 896.866 868.847 898.179C869.514 899.499 869.848 901.002 869.848 902.687C869.848 904.969 869.275 906.917 868.131 908.532C866.994 910.147 865.414 911.375 863.392 912.218C861.377 913.06 859.07 913.482 856.473 913.482ZM881.422 912.85H876.683V885.468H881.422V912.85ZM879.052 880.781C878.139 880.781 877.36 880.448 876.714 879.781C876.061 879.114 875.735 878.341 875.735 877.464C875.735 876.446 876.033 875.638 876.63 875.041C877.227 874.445 878.034 874.146 879.052 874.146C879.965 874.146 880.748 874.469 881.401 875.115C882.047 875.768 882.37 876.551 882.37 877.464C882.37 878.447 882.071 879.244 881.474 879.854C880.878 880.472 880.07 880.781 879.052 880.781ZM894.586 912.85H889.847V885.468H894.428V890.049C895.411 888.574 896.657 887.335 898.167 886.331C899.676 885.334 901.397 884.836 903.327 884.836C905.504 884.836 907.287 885.362 908.677 886.416C910.06 887.469 911.033 888.873 911.595 890.628C912.683 889.013 913.975 887.644 915.47 886.521C916.959 885.397 918.809 884.836 921.02 884.836C924.004 884.836 926.226 885.773 927.687 887.648C929.14 889.529 929.867 891.98 929.867 894.999V912.85H925.128V895.367C925.128 893.472 924.689 891.934 923.811 890.754C922.934 889.582 921.722 888.996 920.178 888.996C918.598 888.996 917.134 889.582 915.786 890.754C914.431 891.934 913.245 893.314 912.226 894.893V912.85H907.487V895.367C907.487 893.472 907.048 891.934 906.171 890.754C905.293 889.582 904.082 888.996 902.537 888.996C900.993 888.996 899.536 889.564 898.167 890.702C896.798 891.846 895.604 893.191 894.586 894.735V912.85ZM943.768 924.434H939.029V892.471C939.029 891.278 938.738 890.425 938.155 889.912C937.579 889.406 936.835 889.154 935.922 889.154L936.923 885.468C940.153 885.468 942.171 886.749 942.979 889.312C943.33 888.785 943.898 888.171 944.685 887.469C945.478 886.767 946.461 886.152 947.633 885.626C948.813 885.099 950.157 884.836 951.667 884.836C953.773 884.836 955.746 885.387 957.586 886.489C959.432 887.599 960.917 889.196 962.041 891.281C963.164 893.373 963.726 895.911 963.726 898.895C963.726 901.809 963.164 904.361 962.041 906.552C960.917 908.749 959.45 910.452 957.638 911.66C955.834 912.874 953.879 913.482 951.772 913.482C950.158 913.482 948.648 913.155 947.244 912.502C945.84 911.856 944.681 911.112 943.768 910.269V924.434ZM950.825 909.269C953.212 909.269 955.149 908.328 956.638 906.446C958.133 904.572 958.881 902.107 958.881 899.053C958.881 896.947 958.502 895.139 957.744 893.63C956.992 892.12 955.992 890.962 954.742 890.154C953.499 889.347 952.123 888.943 950.614 888.943C949.104 888.943 947.742 889.319 946.528 890.07C945.32 890.828 944.4 891.646 943.768 892.524V906.004C944.681 906.952 945.734 907.731 946.928 908.342C948.121 908.96 949.42 909.269 950.825 909.269ZM978.617 913.482C977.009 913.482 975.556 913.173 974.257 912.555C972.951 911.944 971.923 910.954 971.171 909.585C970.42 908.216 970.045 906.443 970.045 904.266V873.883H974.784V903.793C974.784 905.688 975.177 907.092 975.963 908.005C976.757 908.918 977.855 909.374 979.26 909.374C979.927 909.374 980.583 909.293 981.229 909.132C981.875 908.978 982.43 908.795 982.893 908.584L984.041 912.428C983.409 912.709 982.63 912.955 981.703 913.166C980.776 913.376 979.748 913.482 978.617 913.482ZM993.256 912.85H988.517V885.468H993.256V912.85ZM990.886 880.781C989.974 880.781 989.194 880.448 988.548 879.781C987.895 879.114 987.569 878.341 987.569 877.464C987.569 876.446 987.867 875.638 988.464 875.041C989.061 874.445 989.868 874.146 990.886 874.146C991.799 874.146 992.582 874.469 993.235 875.115C993.881 875.768 994.204 876.551 994.204 877.464C994.204 878.447 993.906 879.244 993.309 879.854C992.712 880.472 991.904 880.781 990.886 880.781ZM1006.95 912.85H1002.21V890.575H997.995V886.468H1002.21V883.256C1002.21 880.167 1003.07 877.727 1004.79 875.937C1006.51 874.146 1008.75 873.251 1011.53 873.251C1012.97 873.251 1014.23 873.416 1015.32 873.746C1016.41 874.083 1017.44 874.497 1018.43 874.989L1017 878.991C1016.27 878.605 1015.48 878.254 1014.64 877.938C1013.79 877.622 1012.86 877.464 1011.84 877.464C1010.37 877.464 1009.18 877.931 1008.28 878.864C1007.39 879.791 1006.95 881.15 1006.95 882.94V886.468H1015.06V890.575H1006.95V912.85ZM1024.75 912.85H1020.01V885.468H1024.75V912.85ZM1022.38 880.781C1021.46 880.781 1020.68 880.448 1020.03 879.781C1019.38 879.114 1019.06 878.341 1019.06 877.464C1019.06 876.446 1019.36 875.638 1019.95 875.041C1020.55 874.445 1021.36 874.146 1022.38 874.146C1023.29 874.146 1024.07 874.469 1024.71 875.115C1025.37 875.768 1025.69 876.551 1025.69 877.464C1025.69 878.447 1025.39 879.244 1024.8 879.854C1024.2 880.472 1023.39 880.781 1022.38 880.781ZM1044.11 913.482C1040.18 913.482 1037.07 912.225 1034.77 909.711C1032.47 907.205 1031.32 903.687 1031.32 899.159C1031.32 896.42 1031.84 893.97 1032.88 891.808C1033.91 889.652 1035.35 887.95 1037.21 886.7C1039.08 885.457 1041.23 884.836 1043.69 884.836C1046.32 884.836 1048.51 885.404 1050.25 886.542C1051.99 887.686 1053.29 889.224 1054.17 891.155C1055.05 893.085 1055.49 895.209 1055.49 897.526C1055.49 898.755 1055.43 899.949 1055.33 901.107H1036.16C1036.48 903.67 1037.37 905.671 1038.85 907.11C1040.32 908.549 1042.27 909.269 1044.69 909.269C1046.27 909.269 1047.69 909.1 1048.96 908.763C1050.22 908.433 1051.43 908.005 1052.59 907.479L1053.7 911.533C1052.43 912.095 1051.01 912.562 1049.43 912.934C1047.85 913.299 1046.08 913.482 1044.11 913.482ZM1036.11 897.263H1051.12C1051.12 894.595 1050.45 892.541 1049.12 891.102C1047.78 889.663 1045.94 888.943 1043.59 888.943C1041.55 888.943 1039.87 889.652 1038.53 891.07C1037.2 892.496 1036.39 894.56 1036.11 897.263ZM1072.18 913.482C1069.93 913.482 1067.88 912.902 1066.02 911.744C1064.16 910.585 1062.68 908.942 1061.6 906.815C1060.51 904.695 1059.96 902.195 1059.96 899.317C1059.96 896.543 1060.52 894.068 1061.63 891.892C1062.73 889.715 1064.2 887.995 1066.05 886.731C1067.89 885.468 1069.92 884.836 1072.13 884.836C1073.95 884.836 1075.52 885.204 1076.84 885.942C1078.16 886.679 1079.18 887.434 1079.92 888.206V873.883H1084.66V906.215C1084.66 907.549 1084.99 908.416 1085.64 908.816C1086.28 909.223 1086.99 909.427 1087.77 909.427L1086.77 913.113C1083.43 913.113 1081.39 911.779 1080.66 909.111C1079.88 910.199 1078.81 911.2 1077.42 912.112C1076.03 913.025 1074.29 913.482 1072.18 913.482ZM1073.23 909.269C1074.53 909.269 1075.77 908.96 1076.95 908.342C1078.12 907.731 1079.11 906.934 1079.92 905.951V892.366C1079.25 891.523 1078.32 890.74 1077.13 890.017C1075.94 889.301 1074.62 888.943 1073.18 888.943C1071.49 888.943 1070.02 889.399 1068.76 890.312C1067.49 891.225 1066.52 892.443 1065.84 893.967C1065.15 895.497 1064.81 897.228 1064.81 899.159C1064.81 901.089 1065.18 902.817 1065.91 904.34C1066.65 905.871 1067.66 907.075 1068.95 907.952C1070.22 908.83 1071.65 909.269 1073.23 909.269Z" fill="#111111"/>
</g>
</g>
</g>
</g>
<g clip-path="url(#clip7_2893_6737)">
<g clip-path="url(#clip8_2893_6737)">
<path d="M713.896 584.004H708.498C707.733 583.978 706.971 584.109 706.259 584.39C705.547 584.671 704.9 585.095 704.359 585.636C703.818 586.177 703.394 586.824 703.113 587.536C702.832 588.248 702.7 589.01 702.726 589.775V594.801C703.19 605.776 707.782 616.171 715.584 623.904C723.386 631.637 733.821 636.137 744.8 636.503H745.545V683.789H756.715V663.869C767.595 663.366 777.892 658.806 785.577 651.087C793.262 643.368 797.776 633.05 798.23 622.168V616.955C798.256 616.19 798.124 615.428 797.843 614.716C797.562 614.004 797.138 613.358 796.597 612.816C796.056 612.275 795.409 611.851 794.697 611.57C793.985 611.289 793.223 611.158 792.458 611.184H787.246C781.408 611.391 775.673 612.786 770.392 615.282C765.111 617.779 760.394 621.325 756.528 625.705V582.514H759.321C765.74 582.514 771.895 579.964 776.434 575.426C780.973 570.887 783.522 564.731 783.522 558.313V532.249H771.422V506H760.252V532.249H741.635V506H730.465V532.249H718.55V558.313C718.55 564.731 721.1 570.887 725.639 575.426C730.178 579.964 736.333 582.514 742.752 582.514H745.545V599.455C741.651 594.801 736.82 591.02 731.367 588.357C725.914 585.695 719.961 584.211 713.896 584.004ZM714.082 595.174C721.942 595.654 729.357 598.98 734.942 604.531C740.527 610.081 743.899 617.476 744.428 625.333C736.601 624.809 729.231 621.464 723.684 615.917C718.138 610.371 714.792 603 714.269 595.174H714.082ZM786.873 622.54C786.389 630.38 783.056 637.773 777.502 643.327C771.947 648.881 764.555 652.214 756.715 652.699C757.199 644.859 760.532 637.466 766.086 631.912C771.641 626.358 779.033 623.025 786.873 622.54ZM742.752 571.344C739.296 571.344 735.981 569.971 733.537 567.527C731.093 565.084 729.72 561.769 729.72 558.313V543.419H772.539V558.313C772.539 561.769 771.166 565.084 768.722 567.527C766.278 569.971 762.963 571.344 759.507 571.344H742.752Z" fill="#2ECC40"/>
</g>
</g>
</g>
</g>
</g>
<path d="M518.039 803.074C518.039 807.005 517.086 814.034 515.18 824.16C513.274 834.167 511.547 840.66 509.998 843.638C508.092 843.162 505.59 842.209 502.493 840.779H419.756C417.016 837.205 415.646 833.452 415.646 829.521C419.697 829.521 422.675 828.806 424.581 827.377C426.487 825.947 427.44 823.565 427.44 820.229V736.42C427.44 733.204 426.487 730.881 424.581 729.451C422.794 728.021 419.875 727.307 415.825 727.307C415.825 723.375 417.195 719.623 419.935 716.049H489.269C491.294 715.096 493.617 714.381 496.238 713.904C498.978 713.309 501.48 713.011 503.744 713.011C505.53 716.466 507.437 721.231 509.462 727.307C511.606 733.382 512.678 737.79 512.678 740.53C511.249 741.841 508.807 743.211 505.352 744.64C501.897 746.07 498.919 747.023 496.417 747.499C494.868 743.092 492.426 739.279 489.09 736.063C485.755 732.846 481.883 731.238 477.475 731.238H457.282V768.943H470.149C477.892 768.943 481.764 764.595 481.764 755.898C487.125 755.898 491.95 757.149 496.238 759.651V792.888C494.332 794.08 492.128 795.033 489.626 795.747C487.125 796.343 484.563 796.641 481.943 796.641C481.943 792.114 480.87 788.719 478.726 786.455C476.582 784.192 473.782 783.06 470.327 783.06H457.282V825.054H478.905C483.908 825.054 488.256 822.969 491.95 818.799C495.643 814.511 497.966 809.269 498.919 803.074H518.039ZM626.729 835.954C624.942 837.741 621.725 839.171 617.079 840.243C612.552 841.315 608.204 841.851 604.034 841.851C598.912 841.851 595.099 840.898 592.598 838.992C590.215 837.086 589.024 834.048 589.024 829.878V774.125C589.024 769.479 588.011 766.143 585.986 764.118C583.961 762.093 581.28 761.08 577.944 761.08C573.06 761.08 568.95 763.046 565.614 766.977V821.48C565.614 824.935 566.329 827.436 567.759 828.985C569.307 830.534 571.869 831.308 575.443 831.308C575.443 834.882 574.073 838.039 571.333 840.779H530.769C527.909 837.92 526.48 834.763 526.48 831.308C530.054 831.308 532.615 830.534 534.164 828.985C535.713 827.436 536.487 824.935 536.487 821.48V769.3C536.487 766.084 535.593 763.82 533.806 762.51C532.019 761.08 528.922 760.366 524.514 760.366V752.324C528.326 750.18 533.687 748.214 540.597 746.427C547.626 744.64 552.927 743.747 556.501 743.747C559.241 743.747 561.326 744.64 562.755 746.427C564.304 748.095 565.197 751.312 565.436 756.077C568.533 752.265 572.405 749.286 577.051 747.142C581.697 744.878 586.939 743.747 592.776 743.747C601.354 743.747 607.668 745.951 611.718 750.359C615.888 754.647 617.972 761.736 617.972 771.623V820.408C617.972 826.245 620.832 829.7 626.55 830.772L626.729 835.954ZM639.296 840.779C638.105 839.349 637.152 837.622 636.437 835.597C635.722 833.572 635.365 831.487 635.365 829.342C639.296 829.342 642.036 828.687 643.585 827.377C645.253 826.066 646.086 823.743 646.086 820.408V736.42C646.086 733.085 645.253 730.761 643.585 729.451C642.036 728.021 639.296 727.307 635.365 727.307C635.365 725.281 635.722 723.256 636.437 721.231C637.152 719.206 638.105 717.478 639.296 716.049H682.719C683.911 717.478 684.864 719.206 685.578 721.231C686.293 723.256 686.651 725.281 686.651 727.307C682.719 727.307 679.92 728.021 678.252 729.451C676.703 730.761 675.929 733.085 675.929 736.42V820.408C675.929 823.743 676.703 826.066 678.252 827.377C679.92 828.687 682.719 829.342 686.651 829.342C686.651 831.487 686.293 833.572 685.578 835.597C684.864 837.622 683.911 839.349 682.719 840.779H639.296Z" fill="black"/>
<path d="M846.178 716.049C847.488 717.478 848.501 719.206 849.216 721.231C849.93 723.256 850.288 725.281 850.288 727.307C846.237 727.307 843.199 728.021 841.174 729.451C839.268 730.881 838.315 733.204 838.315 736.42V820.408C838.315 823.743 839.209 826.066 840.996 827.377C842.902 828.687 845.999 829.342 850.288 829.342C850.288 831.487 849.93 833.572 849.216 835.597C848.501 837.622 847.488 839.349 846.178 840.779H801.861C800.67 839.349 799.717 837.622 799.002 835.597C798.287 833.572 797.93 831.487 797.93 829.342C802.099 829.342 805.197 828.687 807.222 827.377C809.247 825.947 810.26 823.624 810.26 820.408V746.427L779.881 823.088C778.333 826.781 776.188 829.342 773.448 830.772C770.708 832.082 767.134 832.738 762.726 832.738L727.345 746.427V820.408C727.345 823.624 728.476 825.947 730.74 827.377C733.122 828.687 736.696 829.342 741.462 829.342C741.462 831.487 741.104 833.572 740.389 835.597C739.675 837.622 738.722 839.349 737.53 840.779H700.361C699.17 839.349 698.217 837.622 697.502 835.597C696.787 833.572 696.43 831.487 696.43 829.342C700.838 829.342 704.054 828.687 706.08 827.377C708.105 825.947 709.118 823.624 709.118 820.408V736.42C709.118 733.204 708.045 730.881 705.901 729.451C703.757 728.021 700.6 727.307 696.43 727.307C696.43 725.281 696.787 723.256 697.502 721.231C698.217 719.206 699.23 717.478 700.54 716.049H728.595C734.195 716.049 738.662 716.883 741.998 718.551C745.333 720.099 748.014 723.256 750.039 728.021L768.981 774.661L776.129 796.82L782.919 774.661L805.435 716.049H846.178ZM962.525 817.191C963.716 821.003 965.741 823.982 968.6 826.126C971.459 828.27 974.497 829.342 977.714 829.342C977.714 831.487 977.356 833.572 976.642 835.597C975.927 837.622 974.914 839.349 973.604 840.779H925.177C923.867 839.349 922.854 837.622 922.139 835.597C921.424 833.572 921.067 831.487 921.067 829.342C927.857 829.342 931.253 826.483 931.253 820.765C931.253 818.382 930.836 815.583 930.002 812.366L928.93 808.614H888.902L887.829 812.366C886.757 816.059 886.221 818.68 886.221 820.229C886.221 826.305 890.033 829.342 897.658 829.342C897.658 831.487 897.3 833.572 896.586 835.597C895.871 837.622 894.858 839.349 893.548 840.779H853.698C852.388 839.349 851.375 837.622 850.661 835.597C849.946 833.572 849.588 831.487 849.588 829.342C852.924 829.342 855.962 828.389 858.702 826.483C861.442 824.458 863.467 821.539 864.778 817.727L894.084 731.238C889.319 729.689 883.302 728.915 876.035 728.915C876.035 723.792 877.465 719.504 880.324 716.049H929.287L962.525 817.191ZM924.998 794.675L912.311 750.359C911.239 746.785 909.869 743.747 908.201 741.245L892.833 794.675H924.998ZM1071.92 818.263C1076.8 825.649 1082.76 829.342 1089.79 829.342C1089.79 831.487 1089.43 833.572 1088.72 835.597C1088 837.622 1087.05 839.349 1085.86 840.779H1034.39C1033.08 839.349 1032.01 837.622 1031.18 835.597C1030.46 833.572 1030.11 831.487 1030.11 829.342C1036.54 829.342 1039.75 827.734 1039.75 824.518C1039.75 822.969 1038.92 820.825 1037.25 818.085L1023.14 795.211L1007.23 818.085C1006.16 819.633 1005.62 821.182 1005.62 822.731C1005.62 824.637 1006.4 826.245 1007.95 827.555C1009.5 828.747 1011.64 829.342 1014.38 829.342C1014.38 831.487 1014.02 833.572 1013.31 835.597C1012.59 837.622 1011.58 839.349 1010.27 840.779H969.706C968.395 839.349 967.323 837.622 966.489 835.597C965.775 833.572 965.417 831.487 965.417 829.342C970.063 829.342 973.518 828.747 975.782 827.555C978.164 826.245 980.547 823.922 982.929 820.586L1012.95 779.486L984.359 738.207C979.236 730.94 973.161 727.307 966.132 727.307C966.132 722.78 967.442 719.027 970.063 716.049H1022.78C1025.64 719.146 1027.07 722.899 1027.07 727.307C1020.4 727.307 1017.06 728.855 1017.06 731.953C1017.06 733.263 1018.01 735.467 1019.92 738.565L1033.32 760.187L1044.76 739.279C1045.95 737.135 1046.55 735.348 1046.55 733.918C1046.55 732.012 1045.71 730.464 1044.04 729.272C1042.38 727.962 1040.17 727.307 1037.43 727.307C1037.43 722.78 1038.8 719.027 1041.54 716.049H1082.28C1085.14 719.146 1086.57 722.899 1086.57 727.307C1081.93 727.307 1078.41 727.962 1076.03 729.272C1073.65 730.583 1071.32 732.906 1069.06 736.241L1042.79 774.304L1071.92 818.263Z" fill="#EC0F0F"/>
<defs>
<clipPath id="clip0_2893_6737">
<rect width="674.65" height="419.066" fill="white" transform="translate(413.153 506)"/>
</clipPath>
<clipPath id="clip1_2893_6737">
<rect width="674.65" height="419.066" fill="white" transform="translate(413.153 506)"/>
</clipPath>
<clipPath id="clip2_2893_6737">
<rect width="674.65" height="419.066" fill="white" transform="translate(413.153 506)"/>
</clipPath>
<clipPath id="clip3_2893_6737">
<rect width="674.65" height="210.895" fill="white" transform="translate(413.153 714.171)"/>
</clipPath>
<clipPath id="clip4_2893_6737">
<rect width="674.65" height="210.895" fill="white" transform="translate(413.153 714.171)"/>
</clipPath>
<clipPath id="clip5_2893_6737">
<rect width="674.65" height="51.8151" fill="white" transform="translate(413.153 873.251)"/>
</clipPath>
<clipPath id="clip6_2893_6737">
<rect width="674.65" height="51.8151" fill="white" transform="translate(413.153 873.251)"/>
</clipPath>
<clipPath id="clip7_2893_6737">
<rect width="95.5097" height="177.789" fill="white" transform="translate(702.723 506)"/>
</clipPath>
<clipPath id="clip8_2893_6737">
<rect width="95.5097" height="177.789" fill="white" transform="translate(702.723 506)"/>
</clipPath>
</defs>
</svg>
