<svg width="20" height="20" viewBox="0 0 20 20" fill="none" xmlns="http://www.w3.org/2000/svg">
<path d="M20 5.19531V3.63281H18.5988C18.5249 3.34656 18.4107 3.07641 18.2637 2.82793L19.2557 1.83594L18.1509 0.731094L17.1589 1.72309C16.903 1.57168 16.6239 1.45562 16.3281 1.38191V0H14.7656V1.39531C14.489 1.46934 14.2275 1.58051 13.9866 1.72309L12.9946 0.731094L11.8898 1.83594L12.8818 2.82793C12.7347 3.07641 12.6206 3.34656 12.5466 3.63281H11.1328V5.19527H12.5466C12.6206 5.48156 12.7347 5.75168 12.8818 6.00016L11.8898 6.99219L12.9946 8.09703L13.9866 7.10504C14.2275 7.24762 14.489 7.35879 14.7656 7.43281V8.82812H16.3281V7.44621C16.6239 7.3725 16.903 7.25645 17.1589 7.10504L18.1509 8.09703L19.2557 6.99219L18.2638 6.0002C18.4107 5.75172 18.5249 5.48156 18.5989 5.19531H20ZM15.5727 5.97656C14.7112 5.97656 14.0102 5.27563 14.0102 4.41406C14.0102 4.07859 14.1169 3.76773 14.2975 3.51285L14.6716 3.13883C14.9264 2.95816 15.2373 2.85156 15.5727 2.85156C16.4343 2.85156 17.1352 3.5525 17.1352 4.41406C17.1352 5.27563 16.4343 5.97656 15.5727 5.97656Z" fill="#C2CFE0"/>
<path d="M11.7819 11.8439C12.3052 11.453 12.7513 10.964 13.0918 10.4039L11.9391 9.25117C11.3798 10.4533 10.1609 11.2891 8.75 11.2891C6.81148 11.2891 5.23438 9.71195 5.23438 7.77344C5.23438 5.83492 6.81148 4.25781 8.75 4.25781C9.03059 4.25781 9.30355 4.29105 9.56531 4.35348L9.56816 2.76156C9.30172 2.7182 9.02852 2.69531 8.75 2.69531C5.94992 2.69531 3.67188 4.97336 3.67188 7.77344C3.67188 9.42617 4.46566 10.8968 5.69184 11.8247C4.5257 12.2546 3.45641 12.9354 2.55137 13.8404C0.906094 15.4857 0 17.6732 0 20H1.5625C1.5625 16.0584 4.76926 12.8516 8.71094 12.8516C12.6526 12.8516 15.8594 16.0584 15.8594 20H17.4219C17.4219 17.6732 16.5158 15.4857 14.8705 13.8404C13.9789 12.9488 12.9278 12.2748 11.7819 11.8439Z" fill="#C2CFE0"/>
</svg>
