<svg width="20" height="20" viewBox="0 0 20 20" fill="none" xmlns="http://www.w3.org/2000/svg">
<g clip-path="url(#clip0)">
<path d="M16.7411 11.7952C16.7411 12.374 16.2723 12.8427 15.6936 12.8427C15.1148 12.8427 14.6461 12.3739 14.6461 11.7952C14.6461 11.2165 15.1149 10.7477 15.6936 10.7477L16.7411 11.7952ZM16.7411 11.7952C16.7411 11.2169 16.2724 10.7477 15.6936 10.7477L16.7411 11.7952ZM20.0996 9.31679V9.11679H19.8996H19.14V4.90269C19.14 3.734 18.1896 2.78354 17.0209 2.78354H15.8389L14.5662 0.495267C14.5661 0.495226 14.5661 0.495184 14.5661 0.495143C14.328 0.0660755 13.8753 -0.2 13.3844 -0.2C13.1553 -0.2 12.9285 -0.140982 12.7282 -0.0298123L12.728 -0.0297233L7.66912 2.78348H2.01956C0.850859 2.78348 -0.0995972 3.73394 -0.0995972 4.90264V18.0808C-0.0995972 19.2495 0.850859 20.1999 2.01956 20.1999H17.0209C18.1896 20.1999 19.14 19.2495 19.14 18.0808V14.4106H19.8996H20.0996V14.2106V9.31679ZM13.2958 0.990797L13.2965 0.990449C13.3788 0.94429 13.4991 0.978553 13.5453 1.06191L13.5455 1.06216L15.4989 4.57447H6.85096L13.2958 0.990797ZM17.0209 3.95117C17.4283 3.95117 17.7751 4.21061 17.9085 4.57483H16.8349L16.4883 3.95117H17.0209ZM17.9723 18.0808C17.9723 18.6052 17.5452 19.0323 17.0208 19.0323H2.01956C1.49515 19.0323 1.06803 18.6052 1.06803 18.0808V4.90269C1.06803 4.37829 1.49515 3.95117 2.01956 3.95117H5.56957L4.448 4.57489H2.25946C1.93663 4.57489 1.67562 4.83649 1.67562 5.15873C1.67562 5.48096 1.93663 5.74257 2.25946 5.74257H3.11924H17.1441H17.9723V9.11715H15.3654C13.9514 9.11715 12.801 10.2676 12.801 11.6815V11.8466C12.801 13.2606 13.9515 14.411 15.3654 14.411H17.9723V18.0808ZM18.9319 13.243H15.3654C14.5954 13.243 13.9686 12.6163 13.9686 11.8462V11.6811C13.9686 10.9111 14.5953 10.2844 15.3654 10.2844H18.9319V13.243Z" fill="#C2CFE0" stroke="#C2CFE0" stroke-width="0.4"/>
</g>
<defs>
<clipPath id="clip0">
<rect width="20" height="20" fill="white"/>
</clipPath>
</defs>
</svg>
