<svg width="1500" height="1500" viewBox="0 0 1500 1500" fill="none" xmlns="http://www.w3.org/2000/svg">
<rect width="1500" height="1500" rx="750" fill="#F3F5F7"/>
<path fill-rule="evenodd" clip-rule="evenodd" d="M1186.31 1091.37C1084.77 1220.92 926.858 1304.16 749.5 1304.16C572.143 1304.16 414.227 1220.92 312.693 1091.37H277.325C383.253 1237.42 555.284 1332.4 749.5 1332.4C943.716 1332.4 1115.75 1237.42 1221.68 1091.37H1186.31ZM312.693 407.628C414.227 278.081 572.143 194.838 749.5 194.838C926.858 194.838 1084.77 278.081 1186.31 407.628H1221.68C1115.75 261.58 943.716 166.596 749.5 166.596C555.284 166.596 383.253 261.58 277.325 407.628H312.693Z" fill="#EC0F0F"/>
<g clip-path="url(#clip0_2893_6737)">
<g clip-path="url(#clip1_2893_6737)">
<g clip-path="url(#clip2_2893_6737)">
<g clip-path="url(#clip3_2893_6737)">
<g clip-path="url(#clip4_2893_6737)">
<g clip-path="url(#clip5_2893_6737)">
<g clip-path="url(#clip6_2893_6737)">
<path d="M194.904 1037.84H155.866V972.771H194.904V980.393H164.696V1000.19H190.721V1007.63H164.696V1030.21H194.904V1037.84ZM255.785 1038.95C252.067 1038.95 248.659 1038.22 245.561 1036.76C242.462 1035.31 239.984 1033.26 238.125 1030.62C236.266 1027.99 235.336 1024.88 235.336 1021.29C235.336 1017.39 236.328 1013.85 238.311 1010.69C240.294 1007.53 243.578 1004.68 248.163 1002.14C245.871 999.602 244.148 997.217 242.995 994.986C241.855 992.755 241.285 990.184 241.285 987.271C241.285 984.297 241.948 981.632 243.274 979.278C244.613 976.923 246.521 975.064 249 973.701C251.478 972.338 254.391 971.656 257.737 971.656C261.083 971.656 263.915 972.288 266.232 973.552C268.562 974.829 270.347 976.52 271.586 978.627C272.825 980.734 273.445 983.058 273.445 985.598C273.445 989.564 272.299 992.941 270.006 995.73C267.713 998.518 264.088 1001.12 259.131 1003.54L274.468 1018.13C275.273 1016.7 275.862 1015.17 276.234 1013.52C276.605 1011.88 276.959 1010.24 277.293 1008.59C277.628 1006.96 278.142 1005.47 278.836 1004.13C279.518 1002.81 280.54 1001.74 281.903 1000.93C283.267 1000.13 285.126 999.726 287.48 999.726L289.525 1006.33C287.592 1006.33 286.198 1006.88 285.342 1008C284.475 1009.11 283.837 1010.54 283.428 1012.27C283.031 1014.01 282.597 1015.82 282.126 1017.7C281.668 1019.6 280.912 1021.35 279.859 1022.96L290.808 1033L285.621 1038.58L275.769 1029.28C273.29 1032.13 270.483 1034.46 267.348 1036.25C264.225 1038.05 260.37 1038.95 255.785 1038.95ZM255.041 999.169C258.883 997.186 261.622 995.203 263.258 993.22C264.906 991.237 265.73 988.975 265.73 986.435C265.73 984.204 264.987 982.295 263.5 980.709C262.012 979.135 260.03 978.348 257.551 978.348C255.072 978.348 253.028 979.185 251.416 980.858C249.805 982.531 249 984.638 249 987.178C249 991.206 251.014 995.203 255.041 999.169ZM257.086 1031.33C259.751 1031.33 262.242 1030.69 264.559 1029.41C266.877 1028.15 268.909 1026.4 270.657 1024.17L252.346 1006.6C249.619 1008.53 247.575 1010.52 246.211 1012.59C244.848 1014.67 244.166 1017.17 244.166 1020.08C244.166 1023.3 245.375 1025.98 247.791 1028.11C250.208 1030.26 253.306 1031.33 257.086 1031.33ZM340.535 1037.84H331.705V972.771H340.535V1037.84ZM424.188 1037.84H385.15V972.771H424.188V980.393H393.98V1000.19H420.006V1007.63H393.98V1030.21H424.188V1037.84ZM443.224 1037.84H434.859V989.502H442.945V997.588C444.68 994.986 446.899 992.799 449.6 991.026C452.29 989.267 455.493 988.387 459.211 988.387C464.664 988.387 468.742 990.029 471.443 993.313C474.133 996.597 475.477 1000.93 475.477 1006.33V1037.84H467.112V1007.26C467.112 1003.79 466.294 1001 464.658 998.89C463.01 996.783 460.729 995.73 457.817 995.73C454.967 995.73 452.271 996.733 449.731 998.741C447.19 1000.76 445.021 1003.13 443.224 1005.86V1037.84ZM507.637 1059.4C504.787 1059.4 502.011 1059.06 499.309 1058.38C496.62 1057.69 494.222 1056.67 492.115 1055.31L495.182 1048.06C496.669 1049.24 498.404 1050.22 500.387 1051C502.37 1051.76 504.787 1052.15 507.637 1052.15C512.037 1052.15 515.494 1050.99 518.01 1048.67C520.514 1046.34 521.765 1042.64 521.765 1037.56V1031.61C520.526 1033.09 518.748 1034.51 516.43 1035.85C514.1 1037.17 511.324 1037.84 508.102 1037.84C504.446 1037.84 500.976 1036.89 497.692 1034.99C494.408 1033.11 491.743 1030.34 489.698 1026.68C487.653 1023.03 486.631 1018.63 486.631 1013.48C486.631 1008.65 487.641 1004.34 489.661 1000.56C491.669 996.783 494.377 993.809 497.785 991.64C501.193 989.471 504.942 988.387 509.031 988.387C511.758 988.387 514.237 988.851 516.467 989.781C518.698 990.71 520.619 991.857 522.23 993.22V989.502H529.852V1036.72C529.852 1042.05 528.922 1046.39 527.063 1049.73C525.204 1053.08 522.614 1055.53 519.293 1057.08C515.984 1058.62 512.099 1059.4 507.637 1059.4ZM509.961 1030.4C512.44 1030.4 514.67 1029.84 516.653 1028.73C518.636 1027.61 520.247 1026.31 521.486 1024.82V999.54C520.123 998.549 518.481 997.65 516.56 996.845C514.639 996.039 512.409 995.637 509.868 995.637C507.327 995.637 504.942 996.318 502.711 997.681C500.48 999.045 498.671 1001.01 497.283 1003.57C495.882 1006.15 495.182 1009.3 495.182 1013.02C495.182 1016.55 495.882 1019.62 497.283 1022.22C498.671 1024.82 500.48 1026.84 502.711 1028.26C504.942 1029.69 507.358 1030.4 509.961 1030.4ZM552.624 1037.84H544.259V989.502H552.624V1037.84ZM548.441 981.23C546.83 981.23 545.449 980.641 544.296 979.464C543.156 978.286 542.586 976.923 542.586 975.374C542.586 973.577 543.112 972.152 544.166 971.098C545.219 970.045 546.644 969.518 548.441 969.518C550.053 969.518 551.428 970.088 552.568 971.228C553.721 972.381 554.297 973.763 554.297 975.374C554.297 977.109 553.77 978.516 552.717 979.594C551.664 980.684 550.238 981.23 548.441 981.23ZM575.861 1037.84H567.496V989.502H575.582V997.588C577.317 994.986 579.53 992.799 582.219 991.026C584.921 989.267 588.13 988.387 591.848 988.387C597.301 988.387 601.372 990.029 604.062 993.313C606.763 996.597 608.114 1000.93 608.114 1006.33V1037.84H599.749V1007.26C599.749 1003.79 598.925 1001 597.276 998.89C595.641 996.783 593.366 995.73 590.454 995.73C587.604 995.73 584.908 996.733 582.368 998.741C579.827 1000.76 577.658 1003.13 575.861 1005.86V1037.84ZM641.836 1038.95C634.896 1038.95 629.399 1036.73 625.347 1032.3C621.282 1027.87 619.249 1021.66 619.249 1013.67C619.249 1008.84 620.166 1004.51 622.001 1000.69C623.822 996.888 626.375 993.883 629.66 991.677C632.944 989.483 636.755 988.387 641.092 988.387C645.74 988.387 649.6 989.39 652.673 991.398C655.735 993.418 658.04 996.132 659.589 999.54C661.138 1002.95 661.913 1006.7 661.913 1010.79C661.913 1012.96 661.82 1015.06 661.634 1017.11H627.801C628.358 1021.63 629.938 1025.16 632.541 1027.7C635.143 1030.24 638.583 1031.51 642.858 1031.51C645.647 1031.51 648.156 1031.22 650.387 1030.62C652.618 1030.04 654.756 1029.28 656.8 1028.35L658.752 1035.51C656.522 1036.5 654.012 1037.33 651.224 1037.98C648.435 1038.63 645.306 1038.95 641.836 1038.95ZM627.708 1010.32H654.198C654.198 1005.61 653.021 1001.99 650.666 999.447C648.311 996.907 645.058 995.637 640.906 995.637C637.312 995.637 634.338 996.888 631.983 999.392C629.629 1001.91 628.203 1005.55 627.708 1010.32ZM692.4 1038.95C685.459 1038.95 679.963 1036.73 675.911 1032.3C671.846 1027.87 669.813 1021.66 669.813 1013.67C669.813 1008.84 670.73 1004.51 672.564 1000.69C674.386 996.888 676.939 993.883 680.223 991.677C683.507 989.483 687.318 988.387 691.656 988.387C696.303 988.387 700.164 989.39 703.237 991.398C706.298 993.418 708.604 996.132 710.153 999.54C711.702 1002.95 712.476 1006.7 712.476 1010.79C712.476 1012.96 712.383 1015.06 712.197 1017.11H678.364C678.922 1021.63 680.502 1025.16 683.105 1027.7C685.707 1030.24 689.146 1031.51 693.422 1031.51C696.21 1031.51 698.72 1031.22 700.951 1030.62C703.182 1030.04 705.319 1029.28 707.364 1028.35L709.316 1035.51C707.085 1036.5 704.576 1037.33 701.787 1037.98C698.999 1038.63 695.87 1038.95 692.4 1038.95ZM678.271 1010.32H704.762C704.762 1005.61 703.584 1001.99 701.23 999.447C698.875 996.907 695.622 995.637 691.47 995.637C687.876 995.637 684.902 996.888 682.547 999.392C680.192 1001.91 678.767 1005.55 678.271 1010.32ZM731.995 1037.84H723.63V989.502H731.717V1000.01C732.522 997.96 733.607 996.052 734.97 994.28C736.333 992.52 738.037 991.095 740.082 990.004C742.127 988.926 744.512 988.387 747.239 988.387C748.168 988.387 749.098 988.43 750.027 988.517C750.957 988.616 751.731 988.758 752.351 988.944L749.841 997.588C748.664 997.093 747.27 996.845 745.659 996.845C743.366 996.845 741.179 997.496 739.097 998.797C737.027 1000.1 735.323 1002.11 733.985 1004.84C732.658 1007.56 731.995 1011.03 731.995 1015.25V1037.84ZM769.082 1037.84H760.716V989.502H769.082V1037.84ZM764.899 981.23C763.276 981.23 761.894 980.641 760.754 979.464C759.613 978.286 759.043 976.923 759.043 975.374C759.043 973.577 759.564 972.152 760.605 971.098C761.671 970.045 763.102 969.518 764.899 969.518C766.51 969.518 767.886 970.088 769.026 971.228C770.166 972.381 770.736 973.763 770.736 975.374C770.736 977.109 770.216 978.516 769.175 979.594C768.109 980.684 766.684 981.23 764.899 981.23ZM792.3 1037.84H783.935V989.502H792.021V997.588C793.756 994.986 795.975 992.799 798.676 991.026C801.366 989.267 804.569 988.387 808.287 988.387C813.74 988.387 817.818 990.029 820.519 993.313C823.209 996.597 824.553 1000.93 824.553 1006.33V1037.84H816.188V1007.26C816.188 1003.79 815.37 1001 813.734 998.89C812.086 996.783 809.805 995.73 806.893 995.73C804.043 995.73 801.347 996.733 798.807 998.741C796.266 1000.76 794.097 1003.13 792.3 1005.86V1037.84ZM856.713 1059.4C853.863 1059.4 851.093 1059.06 848.404 1058.38C845.702 1057.69 843.298 1056.67 841.191 1055.31L844.258 1048.06C845.745 1049.24 847.48 1050.22 849.463 1051C851.446 1051.76 853.863 1052.15 856.713 1052.15C861.113 1052.15 864.57 1050.99 867.086 1048.67C869.59 1046.34 870.841 1042.64 870.841 1037.56V1031.61C869.602 1033.09 867.824 1034.51 865.506 1035.85C863.176 1037.17 860.4 1037.84 857.178 1037.84C853.522 1037.84 850.052 1036.89 846.768 1034.99C843.484 1033.11 840.819 1030.34 838.774 1026.68C836.729 1023.03 835.707 1018.63 835.707 1013.48C835.707 1008.65 836.717 1004.34 838.737 1000.56C840.745 996.783 843.453 993.809 846.861 991.64C850.269 989.471 854.018 988.387 858.107 988.387C860.834 988.387 863.313 988.851 865.543 989.781C867.774 990.71 869.695 991.857 871.306 993.22V989.502H878.928V1036.72C878.928 1042.05 877.998 1046.39 876.139 1049.73C874.28 1053.08 871.696 1055.53 868.388 1057.08C865.066 1058.62 861.175 1059.4 856.713 1059.4ZM859.037 1030.4C861.516 1030.4 863.746 1029.84 865.729 1028.73C867.712 1027.61 869.323 1026.31 870.562 1024.82V999.54C869.199 998.549 867.557 997.65 865.636 996.845C863.715 996.039 861.485 995.637 858.944 995.637C856.403 995.637 854.018 996.318 851.787 997.681C849.556 999.045 847.747 1001.01 846.359 1003.57C844.958 1006.15 844.258 1009.3 844.258 1013.02C844.258 1016.55 844.958 1019.62 846.359 1022.22C847.747 1024.82 849.556 1026.84 851.787 1028.26C854.018 1029.69 856.434 1030.4 859.037 1030.4ZM938.322 1038.95C933.798 1038.95 929.678 1038.34 925.96 1037.13C922.242 1035.93 919.112 1034.33 916.572 1032.35L921.033 1024.92C923.264 1026.77 925.774 1028.29 928.562 1029.47C931.351 1030.65 934.604 1031.24 938.322 1031.24C942.783 1031.24 946.315 1030.31 948.918 1028.45C951.52 1026.59 952.822 1024.08 952.822 1020.92C952.822 1019.12 952.45 1017.52 951.706 1016.12C950.963 1014.73 949.519 1013.37 947.375 1012.03C945.243 1010.71 942.102 1009.27 937.95 1007.72C933.488 1005.98 929.925 1004.23 927.261 1002.46C924.596 1000.7 922.688 998.685 921.535 996.417C920.395 994.162 919.825 991.485 919.825 988.387C919.825 985.288 920.674 982.481 922.372 979.966C924.082 977.462 926.592 975.448 929.901 973.924C933.222 972.412 937.237 971.656 941.947 971.656C945.788 971.656 949.24 972.04 952.301 972.809C955.375 973.589 958.368 974.692 961.28 976.117L958.027 983.646C955.92 982.407 953.454 981.366 950.628 980.523C947.815 979.693 944.859 979.278 941.761 979.278C937.671 979.278 934.449 980.083 932.094 981.694C929.739 983.305 928.562 985.381 928.562 987.922C928.562 989.533 928.903 990.958 929.585 992.198C930.266 993.437 931.611 994.645 933.619 995.822C935.639 997 938.663 998.332 942.69 999.819C947.524 1001.62 951.347 1003.51 954.16 1005.49C956.986 1007.47 958.987 1009.62 960.165 1011.94C961.342 1014.27 961.93 1016.92 961.93 1019.9C961.93 1023.92 960.921 1027.36 958.9 1030.21C956.893 1033.06 954.104 1035.23 950.535 1036.72C946.978 1038.21 942.907 1038.95 938.322 1038.95ZM982.361 1037.84H973.995V989.502H982.361V1037.84ZM978.178 981.23C976.567 981.23 975.191 980.641 974.051 979.464C972.898 978.286 972.322 976.923 972.322 975.374C972.322 973.577 972.849 972.152 973.902 971.098C974.956 970.045 976.381 969.518 978.178 969.518C979.789 969.518 981.171 970.088 982.323 971.228C983.463 972.381 984.034 973.763 984.034 975.374C984.034 977.109 983.507 978.516 982.453 979.594C981.4 980.684 979.975 981.23 978.178 981.23ZM1005.6 1037.84H997.232V989.502H1005.32V997.588C1007.05 994.986 1009.25 992.799 1011.92 991.026C1014.58 989.267 1017.62 988.387 1021.03 988.387C1024.87 988.387 1028.02 989.316 1030.47 991.175C1032.91 993.034 1034.63 995.513 1035.62 998.611C1037.54 995.761 1039.82 993.344 1042.46 991.361C1045.09 989.378 1048.35 988.387 1052.26 988.387C1057.52 988.387 1061.45 990.041 1064.02 993.35C1066.59 996.671 1067.87 1001 1067.87 1006.33V1037.84H1059.51V1006.98C1059.51 1003.63 1058.73 1000.92 1057.18 998.834C1055.63 996.764 1053.5 995.73 1050.77 995.73C1047.98 995.73 1045.4 996.764 1043.02 998.834C1040.63 1000.92 1038.53 1003.35 1036.74 1006.14V1037.84H1028.37V1006.98C1028.37 1003.63 1027.6 1000.92 1026.05 998.834C1024.5 996.764 1022.36 995.73 1019.63 995.73C1016.91 995.73 1014.33 996.733 1011.92 998.741C1009.5 1000.76 1007.39 1003.13 1005.6 1005.86V1037.84ZM1092.41 1058.28H1084.05V1001.86C1084.05 999.757 1083.53 998.252 1082.5 997.347C1081.49 996.455 1080.17 996.008 1078.56 996.008L1080.33 989.502C1086.03 989.502 1089.59 991.764 1091.02 996.287C1091.64 995.358 1092.64 994.273 1094.03 993.034C1095.43 991.795 1097.16 990.71 1099.23 989.781C1101.32 988.851 1103.69 988.387 1106.35 988.387C1110.07 988.387 1113.55 989.359 1116.8 991.305C1120.06 993.263 1122.68 996.083 1124.66 999.763C1126.65 1003.46 1127.64 1007.94 1127.64 1013.2C1127.64 1018.35 1126.65 1022.85 1124.66 1026.72C1122.68 1030.6 1120.09 1033.6 1116.89 1035.73C1113.71 1037.88 1110.26 1038.95 1106.54 1038.95C1103.69 1038.95 1101.02 1038.37 1098.55 1037.22C1096.07 1036.08 1094.02 1034.77 1092.41 1033.28V1058.28ZM1104.87 1031.51C1109.08 1031.51 1112.5 1029.85 1115.13 1026.53C1117.77 1023.22 1119.09 1018.87 1119.09 1013.48C1119.09 1009.76 1118.42 1006.57 1117.08 1003.91C1115.75 1001.24 1113.99 999.2 1111.78 997.774C1109.59 996.349 1107.16 995.637 1104.49 995.637C1101.83 995.637 1099.43 996.3 1097.28 997.626C1095.15 998.964 1093.53 1000.41 1092.41 1001.96V1025.75C1094.02 1027.42 1095.88 1028.8 1097.99 1029.88C1100.09 1030.97 1102.39 1031.51 1104.87 1031.51ZM1153.92 1038.95C1151.09 1038.95 1148.52 1038.41 1146.23 1037.31C1143.92 1036.24 1142.11 1034.49 1140.78 1032.07C1139.46 1029.66 1138.79 1026.53 1138.79 1022.68V969.053H1147.16V1021.85C1147.16 1025.19 1147.85 1027.67 1149.24 1029.28C1150.64 1030.89 1152.58 1031.7 1155.06 1031.7C1156.24 1031.7 1157.39 1031.56 1158.53 1031.27C1159.67 1031 1160.65 1030.68 1161.47 1030.31L1163.5 1037.09C1162.38 1037.59 1161.01 1038.02 1159.37 1038.39C1157.74 1038.76 1155.92 1038.95 1153.92 1038.95ZM1179.76 1037.84H1171.4V989.502H1179.76V1037.84ZM1175.58 981.23C1173.97 981.23 1172.59 980.641 1171.45 979.464C1170.3 978.286 1169.73 976.923 1169.73 975.374C1169.73 973.577 1170.25 972.152 1171.31 971.098C1172.36 970.045 1173.78 969.518 1175.58 969.518C1177.19 969.518 1178.57 970.088 1179.73 971.228C1180.87 972.381 1181.44 973.763 1181.44 975.374C1181.44 977.109 1180.91 978.516 1179.86 979.594C1178.8 980.684 1177.38 981.23 1175.58 981.23ZM1203.93 1037.84H1195.56V998.518H1188.13V991.268H1195.56V985.598C1195.56 980.145 1197.08 975.839 1200.12 972.678C1203.16 969.518 1207.12 967.938 1212.02 967.938C1214.56 967.938 1216.79 968.229 1218.71 968.812C1220.63 969.407 1222.46 970.138 1224.19 971.005L1221.68 978.069C1220.38 977.388 1218.99 976.768 1217.5 976.21C1216.01 975.653 1214.37 975.374 1212.57 975.374C1209.97 975.374 1207.88 976.198 1206.29 977.846C1204.72 979.482 1203.93 981.88 1203.93 985.041V991.268H1218.24V998.518H1203.93V1037.84ZM1235.35 1037.84H1226.98V989.502H1235.35V1037.84ZM1231.16 981.23C1229.55 981.23 1228.17 980.641 1227.02 979.464C1225.88 978.286 1225.31 976.923 1225.31 975.374C1225.31 973.577 1225.84 972.152 1226.89 971.098C1227.94 970.045 1229.37 969.518 1231.16 969.518C1232.78 969.518 1234.15 970.088 1235.29 971.228C1236.44 972.381 1237.02 973.763 1237.02 975.374C1237.02 977.109 1236.49 978.516 1235.44 979.594C1234.39 980.684 1232.96 981.23 1231.16 981.23ZM1269.53 1038.95C1262.59 1038.95 1257.1 1036.73 1253.04 1032.3C1248.98 1027.87 1246.95 1021.66 1246.95 1013.67C1246.95 1008.84 1247.86 1004.51 1249.7 1000.69C1251.52 996.888 1254.07 993.883 1257.36 991.677C1260.64 989.483 1264.45 988.387 1268.79 988.387C1273.44 988.387 1277.3 989.39 1280.37 991.398C1283.43 993.418 1285.74 996.132 1287.29 999.54C1288.84 1002.95 1289.61 1006.7 1289.61 1010.79C1289.61 1012.96 1289.52 1015.06 1289.33 1017.11H1255.5C1256.06 1021.63 1257.64 1025.16 1260.24 1027.7C1262.84 1030.24 1266.28 1031.51 1270.56 1031.51C1273.34 1031.51 1275.85 1031.22 1278.08 1030.62C1280.32 1030.04 1282.45 1029.28 1284.5 1028.35L1286.45 1035.51C1284.22 1036.5 1281.71 1037.33 1278.92 1037.98C1276.13 1038.63 1273 1038.95 1269.53 1038.95ZM1255.4 1010.32H1281.9C1281.9 1005.61 1280.72 1001.99 1278.36 999.447C1276.01 996.907 1272.76 995.637 1268.6 995.637C1265.01 995.637 1262.04 996.888 1259.68 999.392C1257.33 1001.91 1255.9 1005.55 1255.4 1010.32ZM1319.07 1038.95C1315.11 1038.95 1311.48 1037.93 1308.2 1035.88C1304.92 1033.84 1302.31 1030.94 1300.39 1027.18C1298.47 1023.44 1297.51 1019.03 1297.51 1013.95C1297.51 1009.05 1298.49 1004.68 1300.45 1000.84C1302.39 997 1305 993.964 1308.26 991.733C1311.5 989.502 1315.08 988.387 1318.98 988.387C1322.2 988.387 1324.98 989.037 1327.31 990.339C1329.63 991.64 1331.44 992.972 1332.74 994.335V969.053H1341.1V1026.12C1341.1 1028.48 1341.68 1030.01 1342.83 1030.72C1343.97 1031.43 1345.22 1031.79 1346.59 1031.79L1344.82 1038.3C1338.93 1038.3 1335.34 1035.95 1334.04 1031.24C1332.68 1033.16 1330.77 1034.92 1328.33 1036.53C1325.88 1038.14 1322.79 1038.95 1319.07 1038.95ZM1320.93 1031.51C1323.23 1031.51 1325.41 1030.97 1327.5 1029.88C1329.57 1028.8 1331.31 1027.39 1332.74 1025.66V1001.68C1331.56 1000.19 1329.92 998.809 1327.81 997.533C1325.7 996.269 1323.38 995.637 1320.84 995.637C1317.87 995.637 1315.26 996.442 1313.03 998.053C1310.8 999.664 1309.09 1001.81 1307.88 1004.5C1306.67 1007.21 1306.06 1010.26 1306.06 1013.67C1306.06 1017.08 1306.71 1020.13 1308.01 1022.81C1309.31 1025.52 1311.1 1027.64 1313.37 1029.19C1315.62 1030.74 1318.14 1031.51 1320.93 1031.51Z" fill="#111111"/>
</g>
</g>
</g>
</g>
<g clip-path="url(#clip7_2893_6737)">
<g clip-path="url(#clip8_2893_6737)">
<path d="M686.654 457.376H677.125C675.775 457.33 674.429 457.562 673.173 458.058C671.916 458.553 670.775 459.302 669.82 460.257C668.864 461.213 668.116 462.354 667.62 463.611C667.124 464.867 666.892 466.212 666.938 467.563V476.435C667.756 495.808 675.862 514.156 689.633 527.805C703.405 541.455 721.825 549.398 741.204 550.044H742.518V633.51H762.235V598.349C781.44 597.462 799.616 589.413 813.181 575.787C826.745 562.162 834.713 543.95 835.514 524.741V515.54C835.56 514.189 835.328 512.844 834.832 511.588C834.337 510.331 833.588 509.19 832.633 508.234C831.677 507.279 830.536 506.53 829.279 506.035C828.023 505.539 826.678 505.307 825.328 505.353H816.127C805.822 505.718 795.7 508.18 786.378 512.587C777.055 516.993 768.729 523.253 761.906 530.984V454.747H766.835C778.165 454.747 789.031 450.246 797.042 442.235C805.054 434.223 809.554 423.357 809.554 412.028V366.022H788.195V319.688H768.478V366.022H735.617V319.688H715.901V366.022H694.87V412.028C694.87 423.357 699.37 434.223 707.382 442.235C715.393 450.246 726.259 454.747 737.589 454.747H742.518V484.65C735.645 476.435 727.118 469.76 717.493 465.06C707.867 460.361 697.359 457.742 686.654 457.376ZM686.983 477.092C700.856 477.94 713.945 483.811 723.804 493.609C733.662 503.406 739.614 516.459 740.546 530.327C726.732 529.403 713.721 523.498 703.931 513.707C694.141 503.917 688.236 490.907 687.312 477.092H686.983ZM815.469 525.398C814.614 539.237 808.731 552.286 798.927 562.09C789.123 571.894 776.073 577.777 762.235 578.633C763.09 564.794 768.973 551.745 778.777 541.94C788.581 532.136 801.631 526.253 815.469 525.398ZM737.589 435.03C731.488 435.03 725.637 432.607 721.324 428.293C717.01 423.979 714.586 418.128 714.586 412.028V385.739H790.166V412.028C790.166 418.128 787.743 423.979 783.429 428.293C779.115 432.607 773.264 435.03 767.164 435.03H737.589Z" fill="#2ECC40"/>
</g>
</g>
</g>
</g>
</g>
<path d="M340.939 843.106C340.939 850.045 339.257 862.452 335.892 880.326C332.528 897.989 329.479 909.45 326.745 914.707C323.381 913.866 318.965 912.183 313.497 909.66H167.456C162.619 903.352 160.201 896.728 160.201 889.788C167.351 889.788 172.608 888.527 175.972 886.003C179.337 883.48 181.019 879.274 181.019 873.386V725.452C181.019 719.775 179.337 715.674 175.972 713.151C172.818 710.627 167.666 709.366 160.516 709.366C160.516 702.426 162.935 695.802 167.771 689.494H290.156C293.731 687.812 297.831 686.55 302.457 685.709C307.294 684.657 311.71 684.132 315.705 684.132C318.86 690.23 322.224 698.641 325.799 709.366C329.584 720.09 331.477 727.87 331.477 732.707C328.953 735.02 324.642 737.438 318.544 739.962C312.446 742.485 307.189 744.167 302.773 745.009C300.039 737.228 295.728 730.499 289.84 724.821C283.953 719.144 277.118 716.305 269.338 716.305H233.695V782.859H256.406C270.074 782.859 276.908 775.184 276.908 759.833C286.371 759.833 294.887 762.041 302.457 766.457V825.126C299.093 827.229 295.203 828.911 290.787 830.173C286.371 831.225 281.85 831.75 277.224 831.75C277.224 823.759 275.331 817.766 271.546 813.771C267.761 809.776 262.819 807.778 256.721 807.778H233.695V881.903H271.861C280.693 881.903 288.369 878.223 294.887 870.863C301.406 863.293 305.507 854.04 307.189 843.106H340.939ZM532.791 901.144C529.637 904.298 523.959 906.821 515.758 908.714C507.768 910.606 500.092 911.553 492.732 911.553C483.69 911.553 476.961 909.87 472.545 906.506C468.34 903.141 466.237 897.779 466.237 890.419V792.007C466.237 783.806 464.449 777.918 460.874 774.343C457.3 770.768 452.568 768.981 446.68 768.981C438.059 768.981 430.804 772.45 424.916 779.39V875.594C424.916 881.692 426.178 886.108 428.701 888.842C431.435 891.576 435.956 892.943 442.264 892.943C442.264 899.251 439.846 904.824 435.01 909.66H363.408C358.362 904.613 355.838 899.041 355.838 892.943C362.147 892.943 366.668 891.576 369.401 888.842C372.135 886.108 373.502 881.692 373.502 875.594V783.49C373.502 777.813 371.925 773.817 368.771 771.504C365.616 768.981 360.149 767.719 352.368 767.719V753.525C359.098 749.74 368.56 746.27 380.757 743.116C393.163 739.962 402.521 738.385 408.829 738.385C413.666 738.385 417.346 739.962 419.869 743.116C422.603 746.06 424.18 751.738 424.601 760.149C430.068 753.42 436.902 748.163 445.103 744.378C453.304 740.382 462.557 738.385 472.861 738.385C488.001 738.385 499.146 742.275 506.296 750.055C513.656 757.625 517.335 770.137 517.335 787.591V873.702C517.335 884.006 522.382 890.104 532.476 891.996L532.791 901.144ZM554.974 909.66C552.872 907.137 551.189 904.088 549.928 900.513C548.666 896.938 548.035 893.258 548.035 889.473C554.974 889.473 559.811 888.316 562.545 886.003C565.489 883.69 566.961 879.59 566.961 873.702V725.452C566.961 719.564 565.489 715.464 562.545 713.151C559.811 710.627 554.974 709.366 548.035 709.366C548.035 705.791 548.666 702.216 549.928 698.641C551.189 695.066 552.872 692.017 554.974 689.494H631.623C633.725 692.017 635.408 695.066 636.669 698.641C637.931 702.216 638.562 705.791 638.562 709.366C631.623 709.366 626.681 710.627 623.737 713.151C621.003 715.464 619.636 719.564 619.636 725.452V873.702C619.636 879.59 621.003 883.69 623.737 886.003C626.681 888.316 631.623 889.473 638.562 889.473C638.562 893.258 637.931 896.938 636.669 900.513C635.408 904.088 633.725 907.137 631.623 909.66H554.974Z" fill="black"/>
<path d="M920.15 689.494C922.463 692.017 924.25 695.066 925.512 698.641C926.774 702.216 927.405 705.791 927.405 709.366C920.255 709.366 914.893 710.627 911.318 713.151C907.953 715.674 906.271 719.775 906.271 725.452V873.702C906.271 879.59 907.848 883.69 911.002 886.003C914.367 888.316 919.834 889.473 927.405 889.473C927.405 893.258 926.774 896.938 925.512 900.513C924.25 904.088 922.463 907.137 920.15 909.66H841.925C839.822 907.137 838.139 904.088 836.878 900.513C835.616 896.938 834.985 893.258 834.985 889.473C842.345 889.473 847.812 888.316 851.387 886.003C854.962 883.48 856.749 879.379 856.749 873.702V743.116L803.127 878.433C800.394 884.952 796.609 889.473 791.772 891.996C786.935 894.309 780.627 895.466 772.847 895.466L710.392 743.116V873.702C710.392 879.379 712.39 883.48 716.386 886.003C720.591 888.316 726.9 889.473 735.311 889.473C735.311 893.258 734.68 896.938 733.418 900.513C732.157 904.088 730.475 907.137 728.372 909.66H662.763C660.661 907.137 658.978 904.088 657.717 900.513C656.455 896.938 655.824 893.258 655.824 889.473C663.605 889.473 669.282 888.316 672.857 886.003C676.432 883.48 678.219 879.379 678.219 873.702V725.452C678.219 719.775 676.327 715.674 672.542 713.151C668.756 710.627 663.184 709.366 655.824 709.366C655.824 705.791 656.455 702.216 657.717 698.641C658.978 695.066 660.766 692.017 663.079 689.494H712.6C722.484 689.494 730.369 690.966 736.257 693.91C742.145 696.643 746.877 702.216 750.451 710.627L783.886 792.953L796.503 832.066L808.49 792.953L848.233 689.494H920.15ZM1125.52 868.024C1127.62 874.753 1131.2 880.01 1136.24 883.795C1141.29 887.58 1146.65 889.473 1152.33 889.473C1152.33 893.258 1151.7 896.938 1150.44 900.513C1149.18 904.088 1147.39 907.137 1145.07 909.66H1059.59C1057.28 907.137 1055.49 904.088 1054.23 900.513C1052.97 896.938 1052.34 893.258 1052.34 889.473C1064.33 889.473 1070.32 884.426 1070.32 874.333C1070.32 870.127 1069.58 865.185 1068.11 859.508L1066.22 852.884H995.563L993.671 859.508C991.778 866.026 990.832 870.653 990.832 873.386C990.832 884.111 997.561 889.473 1011.02 889.473C1011.02 893.258 1010.39 896.938 1009.13 900.513C1007.86 904.088 1006.08 907.137 1003.76 909.66H933.425C931.112 907.137 929.324 904.088 928.063 900.513C926.801 896.938 926.17 893.258 926.17 889.473C932.058 889.473 937.42 887.791 942.257 884.426C947.093 880.851 950.668 875.699 952.981 868.97L1004.71 716.305C996.299 713.571 985.68 712.204 972.853 712.204C972.853 703.162 975.376 695.592 980.423 689.494H1066.85L1125.52 868.024ZM1059.28 828.281L1036.88 750.055C1034.99 743.747 1032.57 738.385 1029.63 733.969L1002.5 828.281H1059.28ZM1318.62 869.917C1327.24 882.954 1337.75 889.473 1350.16 889.473C1350.16 893.258 1349.53 896.938 1348.27 900.513C1347.01 904.088 1345.32 907.137 1343.22 909.66H1252.38C1250.06 907.137 1248.17 904.088 1246.7 900.513C1245.44 896.938 1244.81 893.258 1244.81 889.473C1256.16 889.473 1261.84 886.634 1261.84 880.956C1261.84 878.223 1260.37 874.438 1257.42 869.601L1232.51 829.227L1204.43 869.601C1202.54 872.335 1201.59 875.069 1201.59 877.802C1201.59 881.167 1202.96 884.006 1205.7 886.319C1208.43 888.422 1212.21 889.473 1217.05 889.473C1217.05 893.258 1216.42 896.938 1215.16 900.513C1213.9 904.088 1212.11 907.137 1209.8 909.66H1138.19C1135.88 907.137 1133.99 904.088 1132.52 900.513C1131.25 896.938 1130.62 893.258 1130.62 889.473C1138.83 889.473 1144.92 888.422 1148.92 886.319C1153.12 884.006 1157.33 879.905 1161.54 874.017L1214.53 801.469L1164.06 728.606C1155.02 715.779 1144.29 709.366 1131.89 709.366C1131.89 701.375 1134.2 694.751 1138.83 689.494H1231.88C1236.92 694.961 1239.45 701.585 1239.45 709.366C1227.67 709.366 1221.78 712.099 1221.78 717.567C1221.78 719.88 1223.46 723.77 1226.83 729.237L1250.49 767.404L1270.67 730.499C1272.78 726.714 1273.83 723.56 1273.83 721.036C1273.83 717.672 1272.35 714.938 1269.41 712.835C1266.47 710.522 1262.58 709.366 1257.74 709.366C1257.74 701.375 1260.16 694.751 1264.99 689.494H1336.91C1341.96 694.961 1344.48 701.585 1344.48 709.366C1336.28 709.366 1330.08 710.522 1325.87 712.835C1321.67 715.148 1317.57 719.249 1313.57 725.137L1267.2 792.322L1318.62 869.917Z" fill="#EC0F0F"/>
<defs>
<clipPath id="clip0_2893_6737">
<rect width="1190.85" height="739.711" fill="white" transform="translate(155.801 319.688)"/>
</clipPath>
<clipPath id="clip1_2893_6737">
<rect width="1190.85" height="739.711" fill="white" transform="translate(155.801 319.688)"/>
</clipPath>
<clipPath id="clip2_2893_6737">
<rect width="1190.85" height="739.711" fill="white" transform="translate(155.801 319.688)"/>
</clipPath>
<clipPath id="clip3_2893_6737">
<rect width="1190.85" height="372.259" fill="white" transform="translate(155.801 687.14)"/>
</clipPath>
<clipPath id="clip4_2893_6737">
<rect width="1190.85" height="372.259" fill="white" transform="translate(155.801 687.14)"/>
</clipPath>
<clipPath id="clip5_2893_6737">
<rect width="1190.85" height="91.461" fill="white" transform="translate(155.801 967.938)"/>
</clipPath>
<clipPath id="clip6_2893_6737">
<rect width="1190.85" height="91.461" fill="white" transform="translate(155.801 967.938)"/>
</clipPath>
<clipPath id="clip7_2893_6737">
<rect width="168.588" height="313.822" fill="white" transform="translate(666.932 319.688)"/>
</clipPath>
<clipPath id="clip8_2893_6737">
<rect width="168.588" height="313.822" fill="white" transform="translate(666.932 319.688)"/>
</clipPath>
</defs>
</svg>
